<svg xmlns="http://www.w3.org/2000/svg" width="720" height="420" viewBox="0 0 720 420" font-family="ui-sans-serif,system-ui,sans-serif"><style>
  .bg{fill:#ffffff}.ink{fill:#111827}.muted{fill:#6b7280}
  .grid{stroke:#e5e7eb}.axis{stroke:#9ca3af}
  @media (prefers-color-scheme: dark){
    .bg{fill:#0d1117}.ink{fill:#e6edf3}.muted{fill:#8b949e}
    .grid{stroke:#21262d}.axis{stroke:#484f58}
  }
  text{font-size:12px}.title{font-size:15px;font-weight:600}
</style><rect class="bg" width="720" height="420"/><text class="title ink" x="30" y="24">Where the percentiles come from</text><line class="grid" x1="70" y1="364.0" x2="590.0" y2="364.0"/><text class="muted" x="62" y="368.0" text-anchor="end">0</text><line class="grid" x1="70" y1="300.4" x2="590.0" y2="300.4"/><text class="muted" x="62" y="304.4" text-anchor="end">21.6</text><line class="grid" x1="70" y1="236.8" x2="590.0" y2="236.8"/><text class="muted" x="62" y="240.8" text-anchor="end">43.2</text><line class="grid" x1="70" y1="173.2" x2="590.0" y2="173.2"/><text class="muted" x="62" y="177.2" text-anchor="end">64.8</text><line class="grid" x1="70" y1="109.6" x2="590.0" y2="109.6"/><text class="muted" x="62" y="113.6" text-anchor="end">86.4</text><line class="grid" x1="70" y1="46.0" x2="590.0" y2="46.0"/><text class="muted" x="62" y="50.0" text-anchor="end">108</text><text class="muted" x="70.0" y="382.0" text-anchor="middle">4.31</text><text class="muted" x="200.0" y="382.0" text-anchor="middle">16.1</text><text class="muted" x="330.0" y="382.0" text-anchor="middle">60.0</text><text class="muted" x="460.0" y="382.0" text-anchor="middle">224.0</text><text class="muted" x="590.0" y="382.0" text-anchor="middle">836.0</text><line class="axis" x1="70" y1="364.0" x2="590.0" y2="364.0"/><line class="axis" x1="70" y1="46" x2="70" y2="364.0"/><text class="muted" x="330.0" y="406" text-anchor="middle">time to first token (ms)</text><text class="muted" x="18.0" y="205.0" text-anchor="middle" transform="rotate(-90 18.0 205.0)">share of requests (%)</text><path d="M70.0 362.5 L71.7 360.9 L73.4 359.4 L73.4 357.9 L73.9 356.3 L74.5 354.8 L74.6 353.3 L74.7 351.7 L74.7 350.2 L74.8 348.7 L75.8 347.1 L75.9 345.6 L76.1 344.1 L76.2 342.5 L76.3 341.0 L76.3 339.5 L76.4 337.9 L76.5 336.4 L76.8 334.9 L77.0 333.3 L77.1 331.8 L77.4 330.3 L77.4 328.7 L77.5 327.2 L78.1 325.7 L78.2 324.1 L78.2 322.6 L78.3 321.1 L78.5 319.5 L78.6 318.0 L78.6 316.5 L78.9 314.9 L78.9 313.4 L79.2 311.9 L79.2 310.3 L79.8 308.8 L79.9 307.3 L80.0 305.7 L80.0 304.2 L80.4 302.7 L80.5 301.1 L80.5 299.6 L80.8 298.1 L80.8 296.5 L80.9 295.0 L81.1 293.5 L81.4 291.9 L81.5 290.4 L81.6 288.9 L81.6 287.3 L81.6 285.8 L82.2 284.3 L82.3 282.7 L82.7 281.2 L82.7 279.7 L82.8 278.1 L82.9 276.6 L83.3 275.1 L84.1 273.5 L84.2 272.0 L84.6 270.5 L84.8 268.9 L84.9 267.4 L85.8 265.9 L85.8 264.3 L86.1 262.8 L86.5 261.3 L86.9 259.7 L87.3 258.2 L87.4 256.7 L87.6 255.1 L87.9 253.6 L88.0 252.0 L88.2 250.5 L88.5 249.0 L88.6 247.4 L88.6 245.9 L89.0 244.4 L89.4 242.8 L89.7 241.3 L89.8 239.8 L90.0 238.2 L90.8 236.7 L90.9 235.2 L91.3 233.6 L91.7 232.1 L91.7 230.6 L92.0 229.0 L92.2 227.5 L92.3 226.0 L92.5 224.4 L92.6 222.9 L92.9 221.4 L92.9 219.8 L92.9 218.3 L93.0 216.8 L93.2 215.2 L93.5 213.7 L93.5 212.2 L93.5 210.6 L93.8 209.1 L93.9 207.6 L94.0 206.0 L94.4 204.5 L94.5 203.0 L94.5 201.4 L94.6 199.9 L94.7 198.4 L95.3 196.8 L95.4 195.3 L95.5 193.8 L95.6 192.2 L96.2 190.7 L96.4 189.2 L96.5 187.6 L96.7 186.1 L96.9 184.6 L97.3 183.0 L97.5 181.5 L97.6 180.0 L97.7 178.4 L98.1 176.9 L98.4 175.4 L98.8 173.8 L99.1 172.3 L99.1 170.8 L99.4 169.2 L99.6 167.7 L99.7 166.2 L99.8 164.6 L99.9 163.1 L100.5 161.6 L100.8 160.0 L101.1 158.5 L101.2 157.0 L101.3 155.4 L101.3 153.9 L102.0 152.4 L102.0 150.8 L103.1 149.3 L103.6 147.8 L103.8 146.2 L105.3 144.7 L105.4 143.2 L105.8 141.6 L106.1 140.1 L106.1 138.6 L106.4 137.0 L107.5 135.5 L108.1 134.0 L108.5 132.4 L108.5 130.9 L108.9 129.4 L108.9 127.8 L109.3 126.3 L109.8 124.8 L110.3 123.2 L111.8 121.7 L112.6 120.2 L113.1 118.6 L113.4 117.1 L113.5 115.6 L114.6 114.0 L114.7 112.5 L116.2 111.0 L116.3 109.4 L116.4 107.9 L116.5 106.4 L117.4 104.8 L117.6 103.3 L118.3 101.8 L118.4 100.2 L119.5 98.7 L119.7 97.2 L121.0 95.6 L122.4 94.1 L122.8 92.6 L123.1 91.0 L123.1 89.5 L123.7 88.0 L124.3 86.4 L124.6 84.9 L126.0 83.4 L128.0 81.8 L128.5 80.3 L130.1 78.8 L130.4 77.2 L130.7 75.7 L136.1 74.2 L143.7 72.6 L183.5 71.1 L201.0 69.6 L201.0 69.6" fill="none" stroke="#3b82f6" stroke-width="2"/><circle cx="70.0" cy="362.5" r="3.5" fill="#3b82f6"/><circle cx="71.7" cy="360.9" r="3.5" fill="#3b82f6"/><circle cx="73.4" cy="359.4" r="3.5" fill="#3b82f6"/><circle cx="73.4" cy="357.9" r="3.5" fill="#3b82f6"/><circle cx="73.9" cy="356.3" r="3.5" fill="#3b82f6"/><circle cx="74.5" cy="354.8" r="3.5" fill="#3b82f6"/><circle cx="74.6" cy="353.3" r="3.5" fill="#3b82f6"/><circle cx="74.7" cy="351.7" r="3.5" fill="#3b82f6"/><circle cx="74.7" cy="350.2" r="3.5" fill="#3b82f6"/><circle cx="74.8" cy="348.7" r="3.5" fill="#3b82f6"/><circle cx="75.8" cy="347.1" r="3.5" fill="#3b82f6"/><circle cx="75.9" cy="345.6" r="3.5" fill="#3b82f6"/><circle cx="76.1" cy="344.1" r="3.5" fill="#3b82f6"/><circle cx="76.2" cy="342.5" r="3.5" fill="#3b82f6"/><circle cx="76.3" cy="341.0" r="3.5" fill="#3b82f6"/><circle cx="76.3" cy="339.5" r="3.5" fill="#3b82f6"/><circle cx="76.4" cy="337.9" r="3.5" fill="#3b82f6"/><circle cx="76.5" cy="336.4" r="3.5" fill="#3b82f6"/><circle cx="76.8" cy="334.9" r="3.5" fill="#3b82f6"/><circle cx="77.0" cy="333.3" r="3.5" fill="#3b82f6"/><circle cx="77.1" cy="331.8" r="3.5" fill="#3b82f6"/><circle cx="77.4" cy="330.3" r="3.5" fill="#3b82f6"/><circle cx="77.4" cy="328.7" r="3.5" fill="#3b82f6"/><circle cx="77.5" cy="327.2" r="3.5" fill="#3b82f6"/><circle cx="78.1" cy="325.7" r="3.5" fill="#3b82f6"/><circle cx="78.2" cy="324.1" r="3.5" fill="#3b82f6"/><circle cx="78.2" cy="322.6" r="3.5" fill="#3b82f6"/><circle cx="78.3" cy="321.1" r="3.5" fill="#3b82f6"/><circle cx="78.5" cy="319.5" r="3.5" fill="#3b82f6"/><circle cx="78.6" cy="318.0" r="3.5" fill="#3b82f6"/><circle cx="78.6" cy="316.5" r="3.5" fill="#3b82f6"/><circle cx="78.9" cy="314.9" r="3.5" fill="#3b82f6"/><circle cx="78.9" cy="313.4" r="3.5" fill="#3b82f6"/><circle cx="79.2" cy="311.9" r="3.5" fill="#3b82f6"/><circle cx="79.2" cy="310.3" r="3.5" fill="#3b82f6"/><circle cx="79.8" cy="308.8" r="3.5" fill="#3b82f6"/><circle cx="79.9" cy="307.3" r="3.5" fill="#3b82f6"/><circle cx="80.0" cy="305.7" r="3.5" fill="#3b82f6"/><circle cx="80.0" cy="304.2" r="3.5" fill="#3b82f6"/><circle cx="80.4" cy="302.7" r="3.5" fill="#3b82f6"/><circle cx="80.5" cy="301.1" r="3.5" fill="#3b82f6"/><circle cx="80.5" cy="299.6" r="3.5" fill="#3b82f6"/><circle cx="80.8" cy="298.1" r="3.5" fill="#3b82f6"/><circle cx="80.8" cy="296.5" r="3.5" fill="#3b82f6"/><circle cx="80.9" cy="295.0" r="3.5" fill="#3b82f6"/><circle cx="81.1" cy="293.5" r="3.5" fill="#3b82f6"/><circle cx="81.4" cy="291.9" r="3.5" fill="#3b82f6"/><circle cx="81.5" cy="290.4" r="3.5" fill="#3b82f6"/><circle cx="81.6" cy="288.9" r="3.5" fill="#3b82f6"/><circle cx="81.6" cy="287.3" r="3.5" fill="#3b82f6"/><circle cx="81.6" cy="285.8" r="3.5" fill="#3b82f6"/><circle cx="82.2" cy="284.3" r="3.5" fill="#3b82f6"/><circle cx="82.3" cy="282.7" r="3.5" fill="#3b82f6"/><circle cx="82.7" cy="281.2" r="3.5" fill="#3b82f6"/><circle cx="82.7" cy="279.7" r="3.5" fill="#3b82f6"/><circle cx="82.8" cy="278.1" r="3.5" fill="#3b82f6"/><circle cx="82.9" cy="276.6" r="3.5" fill="#3b82f6"/><circle cx="83.3" cy="275.1" r="3.5" fill="#3b82f6"/><circle cx="84.1" cy="273.5" r="3.5" fill="#3b82f6"/><circle cx="84.2" cy="272.0" r="3.5" fill="#3b82f6"/><circle cx="84.6" cy="270.5" r="3.5" fill="#3b82f6"/><circle cx="84.8" cy="268.9" r="3.5" fill="#3b82f6"/><circle cx="84.9" cy="267.4" r="3.5" fill="#3b82f6"/><circle cx="85.8" cy="265.9" r="3.5" fill="#3b82f6"/><circle cx="85.8" cy="264.3" r="3.5" fill="#3b82f6"/><circle cx="86.1" cy="262.8" r="3.5" fill="#3b82f6"/><circle cx="86.5" cy="261.3" r="3.5" fill="#3b82f6"/><circle cx="86.9" cy="259.7" r="3.5" fill="#3b82f6"/><circle cx="87.3" cy="258.2" r="3.5" fill="#3b82f6"/><circle cx="87.4" cy="256.7" r="3.5" fill="#3b82f6"/><circle cx="87.6" cy="255.1" r="3.5" fill="#3b82f6"/><circle cx="87.9" cy="253.6" r="3.5" fill="#3b82f6"/><circle cx="88.0" cy="252.0" r="3.5" fill="#3b82f6"/><circle cx="88.2" cy="250.5" r="3.5" fill="#3b82f6"/><circle cx="88.5" cy="249.0" r="3.5" fill="#3b82f6"/><circle cx="88.6" cy="247.4" r="3.5" fill="#3b82f6"/><circle cx="88.6" cy="245.9" r="3.5" fill="#3b82f6"/><circle cx="89.0" cy="244.4" r="3.5" fill="#3b82f6"/><circle cx="89.4" cy="242.8" r="3.5" fill="#3b82f6"/><circle cx="89.7" cy="241.3" r="3.5" fill="#3b82f6"/><circle cx="89.8" cy="239.8" r="3.5" fill="#3b82f6"/><circle cx="90.0" cy="238.2" r="3.5" fill="#3b82f6"/><circle cx="90.8" cy="236.7" r="3.5" fill="#3b82f6"/><circle cx="90.9" cy="235.2" r="3.5" fill="#3b82f6"/><circle cx="91.3" cy="233.6" r="3.5" fill="#3b82f6"/><circle cx="91.7" cy="232.1" r="3.5" fill="#3b82f6"/><circle cx="91.7" cy="230.6" r="3.5" fill="#3b82f6"/><circle cx="92.0" cy="229.0" r="3.5" fill="#3b82f6"/><circle cx="92.2" cy="227.5" r="3.5" fill="#3b82f6"/><circle cx="92.3" cy="226.0" r="3.5" fill="#3b82f6"/><circle cx="92.5" cy="224.4" r="3.5" fill="#3b82f6"/><circle cx="92.6" cy="222.9" r="3.5" fill="#3b82f6"/><circle cx="92.9" cy="221.4" r="3.5" fill="#3b82f6"/><circle cx="92.9" cy="219.8" r="3.5" fill="#3b82f6"/><circle cx="92.9" cy="218.3" r="3.5" fill="#3b82f6"/><circle cx="93.0" cy="216.8" r="3.5" fill="#3b82f6"/><circle cx="93.2" cy="215.2" r="3.5" fill="#3b82f6"/><circle cx="93.5" cy="213.7" r="3.5" fill="#3b82f6"/><circle cx="93.5" cy="212.2" r="3.5" fill="#3b82f6"/><circle cx="93.5" cy="210.6" r="3.5" fill="#3b82f6"/><circle cx="93.8" cy="209.1" r="3.5" fill="#3b82f6"/><circle cx="93.9" cy="207.6" r="3.5" fill="#3b82f6"/><circle cx="94.0" cy="206.0" r="3.5" fill="#3b82f6"/><circle cx="94.4" cy="204.5" r="3.5" fill="#3b82f6"/><circle cx="94.5" cy="203.0" r="3.5" fill="#3b82f6"/><circle cx="94.5" cy="201.4" r="3.5" fill="#3b82f6"/><circle cx="94.6" cy="199.9" r="3.5" fill="#3b82f6"/><circle cx="94.7" cy="198.4" r="3.5" fill="#3b82f6"/><circle cx="95.3" cy="196.8" r="3.5" fill="#3b82f6"/><circle cx="95.4" cy="195.3" r="3.5" fill="#3b82f6"/><circle cx="95.5" cy="193.8" r="3.5" fill="#3b82f6"/><circle cx="95.6" cy="192.2" r="3.5" fill="#3b82f6"/><circle cx="96.2" cy="190.7" r="3.5" fill="#3b82f6"/><circle cx="96.4" cy="189.2" r="3.5" fill="#3b82f6"/><circle cx="96.5" cy="187.6" r="3.5" fill="#3b82f6"/><circle cx="96.7" cy="186.1" r="3.5" fill="#3b82f6"/><circle cx="96.9" cy="184.6" r="3.5" fill="#3b82f6"/><circle cx="97.3" cy="183.0" r="3.5" fill="#3b82f6"/><circle cx="97.5" cy="181.5" r="3.5" fill="#3b82f6"/><circle cx="97.6" cy="180.0" r="3.5" fill="#3b82f6"/><circle cx="97.7" cy="178.4" r="3.5" fill="#3b82f6"/><circle cx="98.1" cy="176.9" r="3.5" fill="#3b82f6"/><circle cx="98.4" cy="175.4" r="3.5" fill="#3b82f6"/><circle cx="98.8" cy="173.8" r="3.5" fill="#3b82f6"/><circle cx="99.1" cy="172.3" r="3.5" fill="#3b82f6"/><circle cx="99.1" cy="170.8" r="3.5" fill="#3b82f6"/><circle cx="99.4" cy="169.2" r="3.5" fill="#3b82f6"/><circle cx="99.6" cy="167.7" r="3.5" fill="#3b82f6"/><circle cx="99.7" cy="166.2" r="3.5" fill="#3b82f6"/><circle cx="99.8" cy="164.6" r="3.5" fill="#3b82f6"/><circle cx="99.9" cy="163.1" r="3.5" fill="#3b82f6"/><circle cx="100.5" cy="161.6" r="3.5" fill="#3b82f6"/><circle cx="100.8" cy="160.0" r="3.5" fill="#3b82f6"/><circle cx="101.1" cy="158.5" r="3.5" fill="#3b82f6"/><circle cx="101.2" cy="157.0" r="3.5" fill="#3b82f6"/><circle cx="101.3" cy="155.4" r="3.5" fill="#3b82f6"/><circle cx="101.3" cy="153.9" r="3.5" fill="#3b82f6"/><circle cx="102.0" cy="152.4" r="3.5" fill="#3b82f6"/><circle cx="102.0" cy="150.8" r="3.5" fill="#3b82f6"/><circle cx="103.1" cy="149.3" r="3.5" fill="#3b82f6"/><circle cx="103.6" cy="147.8" r="3.5" fill="#3b82f6"/><circle cx="103.8" cy="146.2" r="3.5" fill="#3b82f6"/><circle cx="105.3" cy="144.7" r="3.5" fill="#3b82f6"/><circle cx="105.4" cy="143.2" r="3.5" fill="#3b82f6"/><circle cx="105.8" cy="141.6" r="3.5" fill="#3b82f6"/><circle cx="106.1" cy="140.1" r="3.5" fill="#3b82f6"/><circle cx="106.1" cy="138.6" r="3.5" fill="#3b82f6"/><circle cx="106.4" cy="137.0" r="3.5" fill="#3b82f6"/><circle cx="107.5" cy="135.5" r="3.5" fill="#3b82f6"/><circle cx="108.1" cy="134.0" r="3.5" fill="#3b82f6"/><circle cx="108.5" cy="132.4" r="3.5" fill="#3b82f6"/><circle cx="108.5" cy="130.9" r="3.5" fill="#3b82f6"/><circle cx="108.9" cy="129.4" r="3.5" fill="#3b82f6"/><circle cx="108.9" cy="127.8" r="3.5" fill="#3b82f6"/><circle cx="109.3" cy="126.3" r="3.5" fill="#3b82f6"/><circle cx="109.8" cy="124.8" r="3.5" fill="#3b82f6"/><circle cx="110.3" cy="123.2" r="3.5" fill="#3b82f6"/><circle cx="111.8" cy="121.7" r="3.5" fill="#3b82f6"/><circle cx="112.6" cy="120.2" r="3.5" fill="#3b82f6"/><circle cx="113.1" cy="118.6" r="3.5" fill="#3b82f6"/><circle cx="113.4" cy="117.1" r="3.5" fill="#3b82f6"/><circle cx="113.5" cy="115.6" r="3.5" fill="#3b82f6"/><circle cx="114.6" cy="114.0" r="3.5" fill="#3b82f6"/><circle cx="114.7" cy="112.5" r="3.5" fill="#3b82f6"/><circle cx="116.2" cy="111.0" r="3.5" fill="#3b82f6"/><circle cx="116.3" cy="109.4" r="3.5" fill="#3b82f6"/><circle cx="116.4" cy="107.9" r="3.5" fill="#3b82f6"/><circle cx="116.5" cy="106.4" r="3.5" fill="#3b82f6"/><circle cx="117.4" cy="104.8" r="3.5" fill="#3b82f6"/><circle cx="117.6" cy="103.3" r="3.5" fill="#3b82f6"/><circle cx="118.3" cy="101.8" r="3.5" fill="#3b82f6"/><circle cx="118.4" cy="100.2" r="3.5" fill="#3b82f6"/><circle cx="119.5" cy="98.7" r="3.5" fill="#3b82f6"/><circle cx="119.7" cy="97.2" r="3.5" fill="#3b82f6"/><circle cx="121.0" cy="95.6" r="3.5" fill="#3b82f6"/><circle cx="122.4" cy="94.1" r="3.5" fill="#3b82f6"/><circle cx="122.8" cy="92.6" r="3.5" fill="#3b82f6"/><circle cx="123.1" cy="91.0" r="3.5" fill="#3b82f6"/><circle cx="123.1" cy="89.5" r="3.5" fill="#3b82f6"/><circle cx="123.7" cy="88.0" r="3.5" fill="#3b82f6"/><circle cx="124.3" cy="86.4" r="3.5" fill="#3b82f6"/><circle cx="124.6" cy="84.9" r="3.5" fill="#3b82f6"/><circle cx="126.0" cy="83.4" r="3.5" fill="#3b82f6"/><circle cx="128.0" cy="81.8" r="3.5" fill="#3b82f6"/><circle cx="128.5" cy="80.3" r="3.5" fill="#3b82f6"/><circle cx="130.1" cy="78.8" r="3.5" fill="#3b82f6"/><circle cx="130.4" cy="77.2" r="3.5" fill="#3b82f6"/><circle cx="130.7" cy="75.7" r="3.5" fill="#3b82f6"/><circle cx="136.1" cy="74.2" r="3.5" fill="#3b82f6"/><circle cx="143.7" cy="72.6" r="3.5" fill="#3b82f6"/><circle cx="183.5" cy="71.1" r="3.5" fill="#3b82f6"/><circle cx="201.0" cy="69.6" r="3.5" fill="#3b82f6"/><circle cx="201.0" cy="69.6" r="3.5" fill="#3b82f6"/><rect x="606.0" y="52.0" width="10" height="10" fill="#3b82f6" rx="2"/><text class="ink" x="622.0" y="61.0">1 clients</text><path d="M97.0 362.5 L105.2 360.9 L107.4 359.4 L110.2 357.9 L110.6 356.3 L111.9 354.8 L112.2 353.3 L113.1 351.7 L114.4 350.2 L114.7 348.7 L116.8 347.1 L119.1 345.6 L119.5 344.1 L120.0 342.5 L120.2 341.0 L121.5 339.5 L121.8 337.9 L123.5 336.4 L123.7 334.9 L123.7 333.3 L123.8 331.8 L124.3 330.3 L124.9 328.7 L125.0 327.2 L125.5 325.7 L127.0 324.1 L127.8 322.6 L128.1 321.1 L128.3 319.5 L130.4 318.0 L130.7 316.5 L131.1 314.9 L132.5 313.4 L133.5 311.9 L133.6 310.3 L133.7 308.8 L134.4 307.3 L134.7 305.7 L135.5 304.2 L135.6 302.7 L137.2 301.1 L137.7 299.6 L138.0 298.1 L138.9 296.5 L139.4 295.0 L139.6 293.5 L140.6 291.9 L140.8 290.4 L141.4 288.9 L141.6 287.3 L141.8 285.8 L142.2 284.3 L143.2 282.7 L143.5 281.2 L144.1 279.7 L145.2 278.1 L145.2 276.6 L145.2 275.1 L145.3 273.5 L145.4 272.0 L145.7 270.5 L146.0 268.9 L146.3 267.4 L146.8 265.9 L146.8 264.3 L146.9 262.8 L147.0 261.3 L147.9 259.7 L148.0 258.2 L148.1 256.7 L148.3 255.1 L148.6 253.6 L148.7 252.0 L149.2 250.5 L149.7 249.0 L149.8 247.4 L149.9 245.9 L149.9 244.4 L150.2 242.8 L150.9 241.3 L151.4 239.8 L151.5 238.2 L151.7 236.7 L152.1 235.2 L152.4 233.6 L153.0 232.1 L153.7 230.6 L154.7 229.0 L155.0 227.5 L155.5 226.0 L155.5 224.4 L156.3 222.9 L156.5 221.4 L156.8 219.8 L157.2 218.3 L157.3 216.8 L157.5 215.2 L157.6 213.7 L157.7 212.2 L158.5 210.6 L158.6 209.1 L159.0 207.6 L159.0 206.0 L159.4 204.5 L159.6 203.0 L159.6 201.4 L159.9 199.9 L160.1 198.4 L160.5 196.8 L160.5 195.3 L160.6 193.8 L160.7 192.2 L160.7 190.7 L160.8 189.2 L161.2 187.6 L161.3 186.1 L161.3 184.6 L162.0 183.0 L162.2 181.5 L162.2 180.0 L162.2 178.4 L162.4 176.9 L162.5 175.4 L162.6 173.8 L163.4 172.3 L164.1 170.8 L165.0 169.2 L165.0 167.7 L165.1 166.2 L165.5 164.6 L166.0 163.1 L166.0 161.6 L166.0 160.0 L166.0 158.5 L166.5 157.0 L167.1 155.4 L167.1 153.9 L167.6 152.4 L167.7 150.8 L167.9 149.3 L168.5 147.8 L168.7 146.2 L169.2 144.7 L169.6 143.2 L170.3 141.6 L170.4 140.1 L170.7 138.6 L170.7 137.0 L170.7 135.5 L170.8 134.0 L171.5 132.4 L171.6 130.9 L171.9 129.4 L172.0 127.8 L172.0 126.3 L172.2 124.8 L172.3 123.2 L172.4 121.7 L172.5 120.2 L173.2 118.6 L173.3 117.1 L173.6 115.6 L173.7 114.0 L174.5 112.5 L174.7 111.0 L174.8 109.4 L175.0 107.9 L175.2 106.4 L176.4 104.8 L176.6 103.3 L177.1 101.8 L177.7 100.2 L177.7 98.7 L178.0 97.2 L178.1 95.6 L178.8 94.1 L178.9 92.6 L179.5 91.0 L180.4 89.5 L180.6 88.0 L181.6 86.4 L181.9 84.9 L182.3 83.4 L182.5 81.8 L182.6 80.3 L182.8 78.8 L184.1 77.2 L189.6 75.7 L189.9 74.2 L195.6 72.6 L196.3 71.1 L198.1 69.6 L198.1 69.6" fill="none" stroke="#f59e0b" stroke-width="2"/><circle cx="97.0" cy="362.5" r="3.5" fill="#f59e0b"/><circle cx="105.2" cy="360.9" r="3.5" fill="#f59e0b"/><circle cx="107.4" cy="359.4" r="3.5" fill="#f59e0b"/><circle cx="110.2" cy="357.9" r="3.5" fill="#f59e0b"/><circle cx="110.6" cy="356.3" r="3.5" fill="#f59e0b"/><circle cx="111.9" cy="354.8" r="3.5" fill="#f59e0b"/><circle cx="112.2" cy="353.3" r="3.5" fill="#f59e0b"/><circle cx="113.1" cy="351.7" r="3.5" fill="#f59e0b"/><circle cx="114.4" cy="350.2" r="3.5" fill="#f59e0b"/><circle cx="114.7" cy="348.7" r="3.5" fill="#f59e0b"/><circle cx="116.8" cy="347.1" r="3.5" fill="#f59e0b"/><circle cx="119.1" cy="345.6" r="3.5" fill="#f59e0b"/><circle cx="119.5" cy="344.1" r="3.5" fill="#f59e0b"/><circle cx="120.0" cy="342.5" r="3.5" fill="#f59e0b"/><circle cx="120.2" cy="341.0" r="3.5" fill="#f59e0b"/><circle cx="121.5" cy="339.5" r="3.5" fill="#f59e0b"/><circle cx="121.8" cy="337.9" r="3.5" fill="#f59e0b"/><circle cx="123.5" cy="336.4" r="3.5" fill="#f59e0b"/><circle cx="123.7" cy="334.9" r="3.5" fill="#f59e0b"/><circle cx="123.7" cy="333.3" r="3.5" fill="#f59e0b"/><circle cx="123.8" cy="331.8" r="3.5" fill="#f59e0b"/><circle cx="124.3" cy="330.3" r="3.5" fill="#f59e0b"/><circle cx="124.9" cy="328.7" r="3.5" fill="#f59e0b"/><circle cx="125.0" cy="327.2" r="3.5" fill="#f59e0b"/><circle cx="125.5" cy="325.7" r="3.5" fill="#f59e0b"/><circle cx="127.0" cy="324.1" r="3.5" fill="#f59e0b"/><circle cx="127.8" cy="322.6" r="3.5" fill="#f59e0b"/><circle cx="128.1" cy="321.1" r="3.5" fill="#f59e0b"/><circle cx="128.3" cy="319.5" r="3.5" fill="#f59e0b"/><circle cx="130.4" cy="318.0" r="3.5" fill="#f59e0b"/><circle cx="130.7" cy="316.5" r="3.5" fill="#f59e0b"/><circle cx="131.1" cy="314.9" r="3.5" fill="#f59e0b"/><circle cx="132.5" cy="313.4" r="3.5" fill="#f59e0b"/><circle cx="133.5" cy="311.9" r="3.5" fill="#f59e0b"/><circle cx="133.6" cy="310.3" r="3.5" fill="#f59e0b"/><circle cx="133.7" cy="308.8" r="3.5" fill="#f59e0b"/><circle cx="134.4" cy="307.3" r="3.5" fill="#f59e0b"/><circle cx="134.7" cy="305.7" r="3.5" fill="#f59e0b"/><circle cx="135.5" cy="304.2" r="3.5" fill="#f59e0b"/><circle cx="135.6" cy="302.7" r="3.5" fill="#f59e0b"/><circle cx="137.2" cy="301.1" r="3.5" fill="#f59e0b"/><circle cx="137.7" cy="299.6" r="3.5" fill="#f59e0b"/><circle cx="138.0" cy="298.1" r="3.5" fill="#f59e0b"/><circle cx="138.9" cy="296.5" r="3.5" fill="#f59e0b"/><circle cx="139.4" cy="295.0" r="3.5" fill="#f59e0b"/><circle cx="139.6" cy="293.5" r="3.5" fill="#f59e0b"/><circle cx="140.6" cy="291.9" r="3.5" fill="#f59e0b"/><circle cx="140.8" cy="290.4" r="3.5" fill="#f59e0b"/><circle cx="141.4" cy="288.9" r="3.5" fill="#f59e0b"/><circle cx="141.6" cy="287.3" r="3.5" fill="#f59e0b"/><circle cx="141.8" cy="285.8" r="3.5" fill="#f59e0b"/><circle cx="142.2" cy="284.3" r="3.5" fill="#f59e0b"/><circle cx="143.2" cy="282.7" r="3.5" fill="#f59e0b"/><circle cx="143.5" cy="281.2" r="3.5" fill="#f59e0b"/><circle cx="144.1" cy="279.7" r="3.5" fill="#f59e0b"/><circle cx="145.2" cy="278.1" r="3.5" fill="#f59e0b"/><circle cx="145.2" cy="276.6" r="3.5" fill="#f59e0b"/><circle cx="145.2" cy="275.1" r="3.5" fill="#f59e0b"/><circle cx="145.3" cy="273.5" r="3.5" fill="#f59e0b"/><circle cx="145.4" cy="272.0" r="3.5" fill="#f59e0b"/><circle cx="145.7" cy="270.5" r="3.5" fill="#f59e0b"/><circle cx="146.0" cy="268.9" r="3.5" fill="#f59e0b"/><circle cx="146.3" cy="267.4" r="3.5" fill="#f59e0b"/><circle cx="146.8" cy="265.9" r="3.5" fill="#f59e0b"/><circle cx="146.8" cy="264.3" r="3.5" fill="#f59e0b"/><circle cx="146.9" cy="262.8" r="3.5" fill="#f59e0b"/><circle cx="147.0" cy="261.3" r="3.5" fill="#f59e0b"/><circle cx="147.9" cy="259.7" r="3.5" fill="#f59e0b"/><circle cx="148.0" cy="258.2" r="3.5" fill="#f59e0b"/><circle cx="148.1" cy="256.7" r="3.5" fill="#f59e0b"/><circle cx="148.3" cy="255.1" r="3.5" fill="#f59e0b"/><circle cx="148.6" cy="253.6" r="3.5" fill="#f59e0b"/><circle cx="148.7" cy="252.0" r="3.5" fill="#f59e0b"/><circle cx="149.2" cy="250.5" r="3.5" fill="#f59e0b"/><circle cx="149.7" cy="249.0" r="3.5" fill="#f59e0b"/><circle cx="149.8" cy="247.4" r="3.5" fill="#f59e0b"/><circle cx="149.9" cy="245.9" r="3.5" fill="#f59e0b"/><circle cx="149.9" cy="244.4" r="3.5" fill="#f59e0b"/><circle cx="150.2" cy="242.8" r="3.5" fill="#f59e0b"/><circle cx="150.9" cy="241.3" r="3.5" fill="#f59e0b"/><circle cx="151.4" cy="239.8" r="3.5" fill="#f59e0b"/><circle cx="151.5" cy="238.2" r="3.5" fill="#f59e0b"/><circle cx="151.7" cy="236.7" r="3.5" fill="#f59e0b"/><circle cx="152.1" cy="235.2" r="3.5" fill="#f59e0b"/><circle cx="152.4" cy="233.6" r="3.5" fill="#f59e0b"/><circle cx="153.0" cy="232.1" r="3.5" fill="#f59e0b"/><circle cx="153.7" cy="230.6" r="3.5" fill="#f59e0b"/><circle cx="154.7" cy="229.0" r="3.5" fill="#f59e0b"/><circle cx="155.0" cy="227.5" r="3.5" fill="#f59e0b"/><circle cx="155.5" cy="226.0" r="3.5" fill="#f59e0b"/><circle cx="155.5" cy="224.4" r="3.5" fill="#f59e0b"/><circle cx="156.3" cy="222.9" r="3.5" fill="#f59e0b"/><circle cx="156.5" cy="221.4" r="3.5" fill="#f59e0b"/><circle cx="156.8" cy="219.8" r="3.5" fill="#f59e0b"/><circle cx="157.2" cy="218.3" r="3.5" fill="#f59e0b"/><circle cx="157.3" cy="216.8" r="3.5" fill="#f59e0b"/><circle cx="157.5" cy="215.2" r="3.5" fill="#f59e0b"/><circle cx="157.6" cy="213.7" r="3.5" fill="#f59e0b"/><circle cx="157.7" cy="212.2" r="3.5" fill="#f59e0b"/><circle cx="158.5" cy="210.6" r="3.5" fill="#f59e0b"/><circle cx="158.6" cy="209.1" r="3.5" fill="#f59e0b"/><circle cx="159.0" cy="207.6" r="3.5" fill="#f59e0b"/><circle cx="159.0" cy="206.0" r="3.5" fill="#f59e0b"/><circle cx="159.4" cy="204.5" r="3.5" fill="#f59e0b"/><circle cx="159.6" cy="203.0" r="3.5" fill="#f59e0b"/><circle cx="159.6" cy="201.4" r="3.5" fill="#f59e0b"/><circle cx="159.9" cy="199.9" r="3.5" fill="#f59e0b"/><circle cx="160.1" cy="198.4" r="3.5" fill="#f59e0b"/><circle cx="160.5" cy="196.8" r="3.5" fill="#f59e0b"/><circle cx="160.5" cy="195.3" r="3.5" fill="#f59e0b"/><circle cx="160.6" cy="193.8" r="3.5" fill="#f59e0b"/><circle cx="160.7" cy="192.2" r="3.5" fill="#f59e0b"/><circle cx="160.7" cy="190.7" r="3.5" fill="#f59e0b"/><circle cx="160.8" cy="189.2" r="3.5" fill="#f59e0b"/><circle cx="161.2" cy="187.6" r="3.5" fill="#f59e0b"/><circle cx="161.3" cy="186.1" r="3.5" fill="#f59e0b"/><circle cx="161.3" cy="184.6" r="3.5" fill="#f59e0b"/><circle cx="162.0" cy="183.0" r="3.5" fill="#f59e0b"/><circle cx="162.2" cy="181.5" r="3.5" fill="#f59e0b"/><circle cx="162.2" cy="180.0" r="3.5" fill="#f59e0b"/><circle cx="162.2" cy="178.4" r="3.5" fill="#f59e0b"/><circle cx="162.4" cy="176.9" r="3.5" fill="#f59e0b"/><circle cx="162.5" cy="175.4" r="3.5" fill="#f59e0b"/><circle cx="162.6" cy="173.8" r="3.5" fill="#f59e0b"/><circle cx="163.4" cy="172.3" r="3.5" fill="#f59e0b"/><circle cx="164.1" cy="170.8" r="3.5" fill="#f59e0b"/><circle cx="165.0" cy="169.2" r="3.5" fill="#f59e0b"/><circle cx="165.0" cy="167.7" r="3.5" fill="#f59e0b"/><circle cx="165.1" cy="166.2" r="3.5" fill="#f59e0b"/><circle cx="165.5" cy="164.6" r="3.5" fill="#f59e0b"/><circle cx="166.0" cy="163.1" r="3.5" fill="#f59e0b"/><circle cx="166.0" cy="161.6" r="3.5" fill="#f59e0b"/><circle cx="166.0" cy="160.0" r="3.5" fill="#f59e0b"/><circle cx="166.0" cy="158.5" r="3.5" fill="#f59e0b"/><circle cx="166.5" cy="157.0" r="3.5" fill="#f59e0b"/><circle cx="167.1" cy="155.4" r="3.5" fill="#f59e0b"/><circle cx="167.1" cy="153.9" r="3.5" fill="#f59e0b"/><circle cx="167.6" cy="152.4" r="3.5" fill="#f59e0b"/><circle cx="167.7" cy="150.8" r="3.5" fill="#f59e0b"/><circle cx="167.9" cy="149.3" r="3.5" fill="#f59e0b"/><circle cx="168.5" cy="147.8" r="3.5" fill="#f59e0b"/><circle cx="168.7" cy="146.2" r="3.5" fill="#f59e0b"/><circle cx="169.2" cy="144.7" r="3.5" fill="#f59e0b"/><circle cx="169.6" cy="143.2" r="3.5" fill="#f59e0b"/><circle cx="170.3" cy="141.6" r="3.5" fill="#f59e0b"/><circle cx="170.4" cy="140.1" r="3.5" fill="#f59e0b"/><circle cx="170.7" cy="138.6" r="3.5" fill="#f59e0b"/><circle cx="170.7" cy="137.0" r="3.5" fill="#f59e0b"/><circle cx="170.7" cy="135.5" r="3.5" fill="#f59e0b"/><circle cx="170.8" cy="134.0" r="3.5" fill="#f59e0b"/><circle cx="171.5" cy="132.4" r="3.5" fill="#f59e0b"/><circle cx="171.6" cy="130.9" r="3.5" fill="#f59e0b"/><circle cx="171.9" cy="129.4" r="3.5" fill="#f59e0b"/><circle cx="172.0" cy="127.8" r="3.5" fill="#f59e0b"/><circle cx="172.0" cy="126.3" r="3.5" fill="#f59e0b"/><circle cx="172.2" cy="124.8" r="3.5" fill="#f59e0b"/><circle cx="172.3" cy="123.2" r="3.5" fill="#f59e0b"/><circle cx="172.4" cy="121.7" r="3.5" fill="#f59e0b"/><circle cx="172.5" cy="120.2" r="3.5" fill="#f59e0b"/><circle cx="173.2" cy="118.6" r="3.5" fill="#f59e0b"/><circle cx="173.3" cy="117.1" r="3.5" fill="#f59e0b"/><circle cx="173.6" cy="115.6" r="3.5" fill="#f59e0b"/><circle cx="173.7" cy="114.0" r="3.5" fill="#f59e0b"/><circle cx="174.5" cy="112.5" r="3.5" fill="#f59e0b"/><circle cx="174.7" cy="111.0" r="3.5" fill="#f59e0b"/><circle cx="174.8" cy="109.4" r="3.5" fill="#f59e0b"/><circle cx="175.0" cy="107.9" r="3.5" fill="#f59e0b"/><circle cx="175.2" cy="106.4" r="3.5" fill="#f59e0b"/><circle cx="176.4" cy="104.8" r="3.5" fill="#f59e0b"/><circle cx="176.6" cy="103.3" r="3.5" fill="#f59e0b"/><circle cx="177.1" cy="101.8" r="3.5" fill="#f59e0b"/><circle cx="177.7" cy="100.2" r="3.5" fill="#f59e0b"/><circle cx="177.7" cy="98.7" r="3.5" fill="#f59e0b"/><circle cx="178.0" cy="97.2" r="3.5" fill="#f59e0b"/><circle cx="178.1" cy="95.6" r="3.5" fill="#f59e0b"/><circle cx="178.8" cy="94.1" r="3.5" fill="#f59e0b"/><circle cx="178.9" cy="92.6" r="3.5" fill="#f59e0b"/><circle cx="179.5" cy="91.0" r="3.5" fill="#f59e0b"/><circle cx="180.4" cy="89.5" r="3.5" fill="#f59e0b"/><circle cx="180.6" cy="88.0" r="3.5" fill="#f59e0b"/><circle cx="181.6" cy="86.4" r="3.5" fill="#f59e0b"/><circle cx="181.9" cy="84.9" r="3.5" fill="#f59e0b"/><circle cx="182.3" cy="83.4" r="3.5" fill="#f59e0b"/><circle cx="182.5" cy="81.8" r="3.5" fill="#f59e0b"/><circle cx="182.6" cy="80.3" r="3.5" fill="#f59e0b"/><circle cx="182.8" cy="78.8" r="3.5" fill="#f59e0b"/><circle cx="184.1" cy="77.2" r="3.5" fill="#f59e0b"/><circle cx="189.6" cy="75.7" r="3.5" fill="#f59e0b"/><circle cx="189.9" cy="74.2" r="3.5" fill="#f59e0b"/><circle cx="195.6" cy="72.6" r="3.5" fill="#f59e0b"/><circle cx="196.3" cy="71.1" r="3.5" fill="#f59e0b"/><circle cx="198.1" cy="69.6" r="3.5" fill="#f59e0b"/><circle cx="198.1" cy="69.6" r="3.5" fill="#f59e0b"/><rect x="606.0" y="72.0" width="10" height="10" fill="#f59e0b" rx="2"/><text class="ink" x="622.0" y="81.0">4 clients</text><path d="M151.6 362.5 L158.5 360.9 L161.5 359.4 L161.5 357.9 L162.8 356.3 L168.5 354.8 L168.6 353.3 L170.1 351.7 L172.3 350.2 L172.7 348.7 L173.8 347.1 L173.9 345.6 L174.2 344.1 L174.2 342.5 L174.4 341.0 L175.9 339.5 L177.0 337.9 L177.0 336.4 L177.0 334.9 L177.0 333.3 L177.1 331.8 L177.1 330.3 L177.3 328.7 L179.0 327.2 L179.3 325.7 L180.0 324.1 L180.9 322.6 L181.1 321.1 L181.4 319.5 L181.4 318.0 L182.3 316.5 L182.5 314.9 L183.4 313.4 L183.6 311.9 L183.7 310.3 L183.7 308.8 L184.4 307.3 L184.9 305.7 L184.9 304.2 L185.1 302.7 L185.1 301.1 L186.0 299.6 L186.0 298.1 L186.1 296.5 L186.3 295.0 L186.3 293.5 L186.3 291.9 L186.3 290.4 L187.0 288.9 L187.0 287.3 L187.1 285.8 L187.1 284.3 L187.1 282.7 L187.4 281.2 L187.4 279.7 L187.4 278.1 L187.6 276.6 L188.5 275.1 L188.7 273.5 L188.7 272.0 L189.2 270.5 L189.2 268.9 L189.4 267.4 L189.5 265.9 L189.9 264.3 L190.5 262.8 L190.6 261.3 L190.7 259.7 L190.7 258.2 L190.7 256.7 L190.7 255.1 L190.9 253.6 L190.9 252.0 L191.0 250.5 L191.1 249.0 L191.9 247.4 L191.9 245.9 L191.9 244.4 L192.4 242.8 L192.6 241.3 L192.6 239.8 L192.6 238.2 L192.6 236.7 L192.6 235.2 L192.6 233.6 L192.6 232.1 L193.2 230.6 L193.7 229.0 L193.9 227.5 L193.9 226.0 L193.9 224.4 L194.7 222.9 L195.2 221.4 L195.2 219.8 L195.2 218.3 L195.2 216.8 L195.4 215.2 L195.4 213.7 L195.6 212.2 L195.6 210.6 L195.7 209.1 L195.7 207.6 L196.3 206.0 L196.3 204.5 L196.4 203.0 L196.4 201.4 L196.4 199.9 L196.8 198.4 L197.0 196.8 L197.0 195.3 L198.3 193.8 L198.6 192.2 L198.6 190.7 L198.8 189.2 L198.8 187.6 L198.8 186.1 L199.0 184.6 L199.0 183.0 L199.0 181.5 L199.2 180.0 L199.5 178.4 L200.1 176.9 L200.1 175.4 L200.1 173.8 L200.1 172.3 L200.1 170.8 L200.3 169.2 L200.8 167.7 L201.2 166.2 L201.2 164.6 L201.3 163.1 L202.1 161.6 L202.5 160.0 L202.8 158.5 L202.9 157.0 L202.9 155.4 L202.9 153.9 L203.4 152.4 L204.0 150.8 L204.1 149.3 L204.1 147.8 L204.3 146.2 L204.9 144.7 L205.0 143.2 L205.0 141.6 L205.0 140.1 L205.4 138.6 L205.7 137.0 L206.5 135.5 L207.0 134.0 L208.2 132.4 L208.2 130.9 L208.7 129.4 L208.7 127.8 L208.7 126.3 L208.7 124.8 L208.8 123.2 L208.8 121.7 L209.1 120.2 L209.1 118.6 L209.1 117.1 L209.1 115.6 L209.1 114.0 L209.1 112.5 L209.1 111.0 L209.1 109.4 L210.4 107.9 L210.9 106.4 L211.9 104.8 L211.9 103.3 L211.9 101.8 L211.9 100.2 L211.9 98.7 L211.9 97.2 L211.9 95.6 L213.7 94.1 L219.2 92.6 L222.9 91.0 L222.9 89.5 L222.9 88.0 L222.9 86.4 L224.8 84.9 L227.1 83.4 L227.3 81.8 L228.7 80.3 L230.0 78.8 L230.0 77.2 L230.0 75.7 L230.4 74.2 L232.4 72.6 L232.4 71.1 L238.2 69.6 L238.2 69.6" fill="none" stroke="#10b981" stroke-width="2"/><circle cx="151.6" cy="362.5" r="3.5" fill="#10b981"/><circle cx="158.5" cy="360.9" r="3.5" fill="#10b981"/><circle cx="161.5" cy="359.4" r="3.5" fill="#10b981"/><circle cx="161.5" cy="357.9" r="3.5" fill="#10b981"/><circle cx="162.8" cy="356.3" r="3.5" fill="#10b981"/><circle cx="168.5" cy="354.8" r="3.5" fill="#10b981"/><circle cx="168.6" cy="353.3" r="3.5" fill="#10b981"/><circle cx="170.1" cy="351.7" r="3.5" fill="#10b981"/><circle cx="172.3" cy="350.2" r="3.5" fill="#10b981"/><circle cx="172.7" cy="348.7" r="3.5" fill="#10b981"/><circle cx="173.8" cy="347.1" r="3.5" fill="#10b981"/><circle cx="173.9" cy="345.6" r="3.5" fill="#10b981"/><circle cx="174.2" cy="344.1" r="3.5" fill="#10b981"/><circle cx="174.2" cy="342.5" r="3.5" fill="#10b981"/><circle cx="174.4" cy="341.0" r="3.5" fill="#10b981"/><circle cx="175.9" cy="339.5" r="3.5" fill="#10b981"/><circle cx="177.0" cy="337.9" r="3.5" fill="#10b981"/><circle cx="177.0" cy="336.4" r="3.5" fill="#10b981"/><circle cx="177.0" cy="334.9" r="3.5" fill="#10b981"/><circle cx="177.0" cy="333.3" r="3.5" fill="#10b981"/><circle cx="177.1" cy="331.8" r="3.5" fill="#10b981"/><circle cx="177.1" cy="330.3" r="3.5" fill="#10b981"/><circle cx="177.3" cy="328.7" r="3.5" fill="#10b981"/><circle cx="179.0" cy="327.2" r="3.5" fill="#10b981"/><circle cx="179.3" cy="325.7" r="3.5" fill="#10b981"/><circle cx="180.0" cy="324.1" r="3.5" fill="#10b981"/><circle cx="180.9" cy="322.6" r="3.5" fill="#10b981"/><circle cx="181.1" cy="321.1" r="3.5" fill="#10b981"/><circle cx="181.4" cy="319.5" r="3.5" fill="#10b981"/><circle cx="181.4" cy="318.0" r="3.5" fill="#10b981"/><circle cx="182.3" cy="316.5" r="3.5" fill="#10b981"/><circle cx="182.5" cy="314.9" r="3.5" fill="#10b981"/><circle cx="183.4" cy="313.4" r="3.5" fill="#10b981"/><circle cx="183.6" cy="311.9" r="3.5" fill="#10b981"/><circle cx="183.7" cy="310.3" r="3.5" fill="#10b981"/><circle cx="183.7" cy="308.8" r="3.5" fill="#10b981"/><circle cx="184.4" cy="307.3" r="3.5" fill="#10b981"/><circle cx="184.9" cy="305.7" r="3.5" fill="#10b981"/><circle cx="184.9" cy="304.2" r="3.5" fill="#10b981"/><circle cx="185.1" cy="302.7" r="3.5" fill="#10b981"/><circle cx="185.1" cy="301.1" r="3.5" fill="#10b981"/><circle cx="186.0" cy="299.6" r="3.5" fill="#10b981"/><circle cx="186.0" cy="298.1" r="3.5" fill="#10b981"/><circle cx="186.1" cy="296.5" r="3.5" fill="#10b981"/><circle cx="186.3" cy="295.0" r="3.5" fill="#10b981"/><circle cx="186.3" cy="293.5" r="3.5" fill="#10b981"/><circle cx="186.3" cy="291.9" r="3.5" fill="#10b981"/><circle cx="186.3" cy="290.4" r="3.5" fill="#10b981"/><circle cx="187.0" cy="288.9" r="3.5" fill="#10b981"/><circle cx="187.0" cy="287.3" r="3.5" fill="#10b981"/><circle cx="187.1" cy="285.8" r="3.5" fill="#10b981"/><circle cx="187.1" cy="284.3" r="3.5" fill="#10b981"/><circle cx="187.1" cy="282.7" r="3.5" fill="#10b981"/><circle cx="187.4" cy="281.2" r="3.5" fill="#10b981"/><circle cx="187.4" cy="279.7" r="3.5" fill="#10b981"/><circle cx="187.4" cy="278.1" r="3.5" fill="#10b981"/><circle cx="187.6" cy="276.6" r="3.5" fill="#10b981"/><circle cx="188.5" cy="275.1" r="3.5" fill="#10b981"/><circle cx="188.7" cy="273.5" r="3.5" fill="#10b981"/><circle cx="188.7" cy="272.0" r="3.5" fill="#10b981"/><circle cx="189.2" cy="270.5" r="3.5" fill="#10b981"/><circle cx="189.2" cy="268.9" r="3.5" fill="#10b981"/><circle cx="189.4" cy="267.4" r="3.5" fill="#10b981"/><circle cx="189.5" cy="265.9" r="3.5" fill="#10b981"/><circle cx="189.9" cy="264.3" r="3.5" fill="#10b981"/><circle cx="190.5" cy="262.8" r="3.5" fill="#10b981"/><circle cx="190.6" cy="261.3" r="3.5" fill="#10b981"/><circle cx="190.7" cy="259.7" r="3.5" fill="#10b981"/><circle cx="190.7" cy="258.2" r="3.5" fill="#10b981"/><circle cx="190.7" cy="256.7" r="3.5" fill="#10b981"/><circle cx="190.7" cy="255.1" r="3.5" fill="#10b981"/><circle cx="190.9" cy="253.6" r="3.5" fill="#10b981"/><circle cx="190.9" cy="252.0" r="3.5" fill="#10b981"/><circle cx="191.0" cy="250.5" r="3.5" fill="#10b981"/><circle cx="191.1" cy="249.0" r="3.5" fill="#10b981"/><circle cx="191.9" cy="247.4" r="3.5" fill="#10b981"/><circle cx="191.9" cy="245.9" r="3.5" fill="#10b981"/><circle cx="191.9" cy="244.4" r="3.5" fill="#10b981"/><circle cx="192.4" cy="242.8" r="3.5" fill="#10b981"/><circle cx="192.6" cy="241.3" r="3.5" fill="#10b981"/><circle cx="192.6" cy="239.8" r="3.5" fill="#10b981"/><circle cx="192.6" cy="238.2" r="3.5" fill="#10b981"/><circle cx="192.6" cy="236.7" r="3.5" fill="#10b981"/><circle cx="192.6" cy="235.2" r="3.5" fill="#10b981"/><circle cx="192.6" cy="233.6" r="3.5" fill="#10b981"/><circle cx="192.6" cy="232.1" r="3.5" fill="#10b981"/><circle cx="193.2" cy="230.6" r="3.5" fill="#10b981"/><circle cx="193.7" cy="229.0" r="3.5" fill="#10b981"/><circle cx="193.9" cy="227.5" r="3.5" fill="#10b981"/><circle cx="193.9" cy="226.0" r="3.5" fill="#10b981"/><circle cx="193.9" cy="224.4" r="3.5" fill="#10b981"/><circle cx="194.7" cy="222.9" r="3.5" fill="#10b981"/><circle cx="195.2" cy="221.4" r="3.5" fill="#10b981"/><circle cx="195.2" cy="219.8" r="3.5" fill="#10b981"/><circle cx="195.2" cy="218.3" r="3.5" fill="#10b981"/><circle cx="195.2" cy="216.8" r="3.5" fill="#10b981"/><circle cx="195.4" cy="215.2" r="3.5" fill="#10b981"/><circle cx="195.4" cy="213.7" r="3.5" fill="#10b981"/><circle cx="195.6" cy="212.2" r="3.5" fill="#10b981"/><circle cx="195.6" cy="210.6" r="3.5" fill="#10b981"/><circle cx="195.7" cy="209.1" r="3.5" fill="#10b981"/><circle cx="195.7" cy="207.6" r="3.5" fill="#10b981"/><circle cx="196.3" cy="206.0" r="3.5" fill="#10b981"/><circle cx="196.3" cy="204.5" r="3.5" fill="#10b981"/><circle cx="196.4" cy="203.0" r="3.5" fill="#10b981"/><circle cx="196.4" cy="201.4" r="3.5" fill="#10b981"/><circle cx="196.4" cy="199.9" r="3.5" fill="#10b981"/><circle cx="196.8" cy="198.4" r="3.5" fill="#10b981"/><circle cx="197.0" cy="196.8" r="3.5" fill="#10b981"/><circle cx="197.0" cy="195.3" r="3.5" fill="#10b981"/><circle cx="198.3" cy="193.8" r="3.5" fill="#10b981"/><circle cx="198.6" cy="192.2" r="3.5" fill="#10b981"/><circle cx="198.6" cy="190.7" r="3.5" fill="#10b981"/><circle cx="198.8" cy="189.2" r="3.5" fill="#10b981"/><circle cx="198.8" cy="187.6" r="3.5" fill="#10b981"/><circle cx="198.8" cy="186.1" r="3.5" fill="#10b981"/><circle cx="199.0" cy="184.6" r="3.5" fill="#10b981"/><circle cx="199.0" cy="183.0" r="3.5" fill="#10b981"/><circle cx="199.0" cy="181.5" r="3.5" fill="#10b981"/><circle cx="199.2" cy="180.0" r="3.5" fill="#10b981"/><circle cx="199.5" cy="178.4" r="3.5" fill="#10b981"/><circle cx="200.1" cy="176.9" r="3.5" fill="#10b981"/><circle cx="200.1" cy="175.4" r="3.5" fill="#10b981"/><circle cx="200.1" cy="173.8" r="3.5" fill="#10b981"/><circle cx="200.1" cy="172.3" r="3.5" fill="#10b981"/><circle cx="200.1" cy="170.8" r="3.5" fill="#10b981"/><circle cx="200.3" cy="169.2" r="3.5" fill="#10b981"/><circle cx="200.8" cy="167.7" r="3.5" fill="#10b981"/><circle cx="201.2" cy="166.2" r="3.5" fill="#10b981"/><circle cx="201.2" cy="164.6" r="3.5" fill="#10b981"/><circle cx="201.3" cy="163.1" r="3.5" fill="#10b981"/><circle cx="202.1" cy="161.6" r="3.5" fill="#10b981"/><circle cx="202.5" cy="160.0" r="3.5" fill="#10b981"/><circle cx="202.8" cy="158.5" r="3.5" fill="#10b981"/><circle cx="202.9" cy="157.0" r="3.5" fill="#10b981"/><circle cx="202.9" cy="155.4" r="3.5" fill="#10b981"/><circle cx="202.9" cy="153.9" r="3.5" fill="#10b981"/><circle cx="203.4" cy="152.4" r="3.5" fill="#10b981"/><circle cx="204.0" cy="150.8" r="3.5" fill="#10b981"/><circle cx="204.1" cy="149.3" r="3.5" fill="#10b981"/><circle cx="204.1" cy="147.8" r="3.5" fill="#10b981"/><circle cx="204.3" cy="146.2" r="3.5" fill="#10b981"/><circle cx="204.9" cy="144.7" r="3.5" fill="#10b981"/><circle cx="205.0" cy="143.2" r="3.5" fill="#10b981"/><circle cx="205.0" cy="141.6" r="3.5" fill="#10b981"/><circle cx="205.0" cy="140.1" r="3.5" fill="#10b981"/><circle cx="205.4" cy="138.6" r="3.5" fill="#10b981"/><circle cx="205.7" cy="137.0" r="3.5" fill="#10b981"/><circle cx="206.5" cy="135.5" r="3.5" fill="#10b981"/><circle cx="207.0" cy="134.0" r="3.5" fill="#10b981"/><circle cx="208.2" cy="132.4" r="3.5" fill="#10b981"/><circle cx="208.2" cy="130.9" r="3.5" fill="#10b981"/><circle cx="208.7" cy="129.4" r="3.5" fill="#10b981"/><circle cx="208.7" cy="127.8" r="3.5" fill="#10b981"/><circle cx="208.7" cy="126.3" r="3.5" fill="#10b981"/><circle cx="208.7" cy="124.8" r="3.5" fill="#10b981"/><circle cx="208.8" cy="123.2" r="3.5" fill="#10b981"/><circle cx="208.8" cy="121.7" r="3.5" fill="#10b981"/><circle cx="209.1" cy="120.2" r="3.5" fill="#10b981"/><circle cx="209.1" cy="118.6" r="3.5" fill="#10b981"/><circle cx="209.1" cy="117.1" r="3.5" fill="#10b981"/><circle cx="209.1" cy="115.6" r="3.5" fill="#10b981"/><circle cx="209.1" cy="114.0" r="3.5" fill="#10b981"/><circle cx="209.1" cy="112.5" r="3.5" fill="#10b981"/><circle cx="209.1" cy="111.0" r="3.5" fill="#10b981"/><circle cx="209.1" cy="109.4" r="3.5" fill="#10b981"/><circle cx="210.4" cy="107.9" r="3.5" fill="#10b981"/><circle cx="210.9" cy="106.4" r="3.5" fill="#10b981"/><circle cx="211.9" cy="104.8" r="3.5" fill="#10b981"/><circle cx="211.9" cy="103.3" r="3.5" fill="#10b981"/><circle cx="211.9" cy="101.8" r="3.5" fill="#10b981"/><circle cx="211.9" cy="100.2" r="3.5" fill="#10b981"/><circle cx="211.9" cy="98.7" r="3.5" fill="#10b981"/><circle cx="211.9" cy="97.2" r="3.5" fill="#10b981"/><circle cx="211.9" cy="95.6" r="3.5" fill="#10b981"/><circle cx="213.7" cy="94.1" r="3.5" fill="#10b981"/><circle cx="219.2" cy="92.6" r="3.5" fill="#10b981"/><circle cx="222.9" cy="91.0" r="3.5" fill="#10b981"/><circle cx="222.9" cy="89.5" r="3.5" fill="#10b981"/><circle cx="222.9" cy="88.0" r="3.5" fill="#10b981"/><circle cx="222.9" cy="86.4" r="3.5" fill="#10b981"/><circle cx="224.8" cy="84.9" r="3.5" fill="#10b981"/><circle cx="227.1" cy="83.4" r="3.5" fill="#10b981"/><circle cx="227.3" cy="81.8" r="3.5" fill="#10b981"/><circle cx="228.7" cy="80.3" r="3.5" fill="#10b981"/><circle cx="230.0" cy="78.8" r="3.5" fill="#10b981"/><circle cx="230.0" cy="77.2" r="3.5" fill="#10b981"/><circle cx="230.0" cy="75.7" r="3.5" fill="#10b981"/><circle cx="230.4" cy="74.2" r="3.5" fill="#10b981"/><circle cx="232.4" cy="72.6" r="3.5" fill="#10b981"/><circle cx="232.4" cy="71.1" r="3.5" fill="#10b981"/><circle cx="238.2" cy="69.6" r="3.5" fill="#10b981"/><circle cx="238.2" cy="69.6" r="3.5" fill="#10b981"/><rect x="606.0" y="92.0" width="10" height="10" fill="#10b981" rx="2"/><text class="ink" x="622.0" y="101.0">16 clients</text><path d="M243.2 362.5 L283.7 360.9 L287.8 359.4 L287.8 357.9 L287.8 356.3 L289.9 354.8 L289.9 353.3 L298.2 351.7 L300.6 350.2 L301.8 348.7 L305.1 347.1 L317.7 345.6 L317.7 344.1 L321.1 342.5 L321.8 341.0 L322.1 339.5 L323.0 337.9 L323.0 336.4 L323.0 334.9 L323.9 333.3 L328.2 331.8 L329.0 330.3 L331.4 328.7 L333.0 327.2 L333.7 325.7 L334.5 324.1 L336.0 322.6 L336.8 321.1 L339.0 319.5 L339.7 318.0 L339.7 316.5 L341.2 314.9 L341.4 313.4 L342.3 311.9 L342.4 310.3 L343.8 308.8 L347.9 307.3 L352.3 305.7 L352.3 304.2 L353.4 302.7 L357.5 301.1 L358.1 299.6 L362.1 298.1 L362.1 296.5 L363.7 295.0 L363.7 293.5 L363.7 291.9 L363.7 290.4 L363.7 288.9 L364.3 287.3 L364.9 285.8 L366.7 284.3 L374.6 282.7 L375.1 281.2 L375.7 279.7 L377.7 278.1 L379.7 276.6 L380.5 275.1 L382.3 273.5 L382.8 272.0 L383.4 270.5 L383.8 268.9 L383.9 267.4 L384.4 265.9 L566.8 264.3 L567.8 262.8 L567.8 261.3 L567.9 259.7 L568.0 258.2 L568.0 256.7 L568.2 255.1 L568.4 253.6 L568.8 252.0 L568.8 250.5 L568.8 249.0 L568.9 247.4 L568.9 245.9 L568.9 244.4 L568.9 242.8 L569.0 241.3 L569.0 239.8 L569.2 238.2 L569.3 236.7 L569.7 235.2 L569.7 233.6 L571.2 232.1 L571.5 230.6 L572.3 229.0 L572.4 227.5 L572.5 226.0 L572.5 224.4 L572.5 222.9 L573.3 221.4 L575.1 219.8 L575.2 218.3 L575.5 216.8 L575.5 215.2 L575.9 213.7 L576.0 212.2 L576.4 210.6 L576.4 209.1 L576.7 207.6 L576.8 206.0 L576.8 204.5 L576.8 203.0 L576.9 201.4 L576.9 199.9 L576.9 198.4 L576.9 196.8 L576.9 195.3 L577.0 193.8 L577.0 192.2 L577.1 190.7 L577.1 189.2 L577.1 187.6 L577.1 186.1 L577.1 184.6 L577.1 183.0 L577.1 181.5 L577.2 180.0 L577.2 178.4 L577.2 176.9 L577.2 175.4 L577.2 173.8 L577.2 172.3 L577.2 170.8 L577.2 169.2 L577.2 167.7 L577.2 166.2 L577.2 164.6 L577.3 163.1 L577.3 161.6 L577.3 160.0 L577.3 158.5 L577.3 157.0 L577.3 155.4 L577.3 153.9 L577.3 152.4 L577.3 150.8 L577.4 149.3 L577.4 147.8 L577.4 146.2 L577.4 144.7 L577.4 143.2 L577.4 141.6 L577.4 140.1 L577.4 138.6 L577.4 137.0 L577.5 135.5 L577.5 134.0 L577.5 132.4 L577.5 130.9 L577.5 129.4 L577.5 127.8 L577.6 126.3 L577.6 124.8 L577.6 123.2 L577.6 121.7 L577.6 120.2 L577.9 118.6 L578.7 117.1 L578.8 115.6 L579.2 114.0 L579.4 112.5 L579.5 111.0 L579.5 109.4 L579.5 107.9 L580.8 106.4 L580.8 104.8 L580.9 103.3 L581.0 101.8 L581.6 100.2 L581.9 98.7 L582.0 97.2 L582.0 95.6 L582.1 94.1 L582.4 92.6 L582.4 91.0 L582.4 89.5 L582.9 88.0 L582.9 86.4 L583.0 84.9 L583.2 83.4 L584.0 81.8 L585.9 80.3 L587.5 78.8 L587.5 77.2 L590.0 75.7 L590.0 74.2 L590.0 72.6 L590.0 71.1 L590.0 69.6 L590.0 69.6" fill="none" stroke="#ef4444" stroke-width="2"/><circle cx="243.2" cy="362.5" r="3.5" fill="#ef4444"/><circle cx="283.7" cy="360.9" r="3.5" fill="#ef4444"/><circle cx="287.8" cy="359.4" r="3.5" fill="#ef4444"/><circle cx="287.8" cy="357.9" r="3.5" fill="#ef4444"/><circle cx="287.8" cy="356.3" r="3.5" fill="#ef4444"/><circle cx="289.9" cy="354.8" r="3.5" fill="#ef4444"/><circle cx="289.9" cy="353.3" r="3.5" fill="#ef4444"/><circle cx="298.2" cy="351.7" r="3.5" fill="#ef4444"/><circle cx="300.6" cy="350.2" r="3.5" fill="#ef4444"/><circle cx="301.8" cy="348.7" r="3.5" fill="#ef4444"/><circle cx="305.1" cy="347.1" r="3.5" fill="#ef4444"/><circle cx="317.7" cy="345.6" r="3.5" fill="#ef4444"/><circle cx="317.7" cy="344.1" r="3.5" fill="#ef4444"/><circle cx="321.1" cy="342.5" r="3.5" fill="#ef4444"/><circle cx="321.8" cy="341.0" r="3.5" fill="#ef4444"/><circle cx="322.1" cy="339.5" r="3.5" fill="#ef4444"/><circle cx="323.0" cy="337.9" r="3.5" fill="#ef4444"/><circle cx="323.0" cy="336.4" r="3.5" fill="#ef4444"/><circle cx="323.0" cy="334.9" r="3.5" fill="#ef4444"/><circle cx="323.9" cy="333.3" r="3.5" fill="#ef4444"/><circle cx="328.2" cy="331.8" r="3.5" fill="#ef4444"/><circle cx="329.0" cy="330.3" r="3.5" fill="#ef4444"/><circle cx="331.4" cy="328.7" r="3.5" fill="#ef4444"/><circle cx="333.0" cy="327.2" r="3.5" fill="#ef4444"/><circle cx="333.7" cy="325.7" r="3.5" fill="#ef4444"/><circle cx="334.5" cy="324.1" r="3.5" fill="#ef4444"/><circle cx="336.0" cy="322.6" r="3.5" fill="#ef4444"/><circle cx="336.8" cy="321.1" r="3.5" fill="#ef4444"/><circle cx="339.0" cy="319.5" r="3.5" fill="#ef4444"/><circle cx="339.7" cy="318.0" r="3.5" fill="#ef4444"/><circle cx="339.7" cy="316.5" r="3.5" fill="#ef4444"/><circle cx="341.2" cy="314.9" r="3.5" fill="#ef4444"/><circle cx="341.4" cy="313.4" r="3.5" fill="#ef4444"/><circle cx="342.3" cy="311.9" r="3.5" fill="#ef4444"/><circle cx="342.4" cy="310.3" r="3.5" fill="#ef4444"/><circle cx="343.8" cy="308.8" r="3.5" fill="#ef4444"/><circle cx="347.9" cy="307.3" r="3.5" fill="#ef4444"/><circle cx="352.3" cy="305.7" r="3.5" fill="#ef4444"/><circle cx="352.3" cy="304.2" r="3.5" fill="#ef4444"/><circle cx="353.4" cy="302.7" r="3.5" fill="#ef4444"/><circle cx="357.5" cy="301.1" r="3.5" fill="#ef4444"/><circle cx="358.1" cy="299.6" r="3.5" fill="#ef4444"/><circle cx="362.1" cy="298.1" r="3.5" fill="#ef4444"/><circle cx="362.1" cy="296.5" r="3.5" fill="#ef4444"/><circle cx="363.7" cy="295.0" r="3.5" fill="#ef4444"/><circle cx="363.7" cy="293.5" r="3.5" fill="#ef4444"/><circle cx="363.7" cy="291.9" r="3.5" fill="#ef4444"/><circle cx="363.7" cy="290.4" r="3.5" fill="#ef4444"/><circle cx="363.7" cy="288.9" r="3.5" fill="#ef4444"/><circle cx="364.3" cy="287.3" r="3.5" fill="#ef4444"/><circle cx="364.9" cy="285.8" r="3.5" fill="#ef4444"/><circle cx="366.7" cy="284.3" r="3.5" fill="#ef4444"/><circle cx="374.6" cy="282.7" r="3.5" fill="#ef4444"/><circle cx="375.1" cy="281.2" r="3.5" fill="#ef4444"/><circle cx="375.7" cy="279.7" r="3.5" fill="#ef4444"/><circle cx="377.7" cy="278.1" r="3.5" fill="#ef4444"/><circle cx="379.7" cy="276.6" r="3.5" fill="#ef4444"/><circle cx="380.5" cy="275.1" r="3.5" fill="#ef4444"/><circle cx="382.3" cy="273.5" r="3.5" fill="#ef4444"/><circle cx="382.8" cy="272.0" r="3.5" fill="#ef4444"/><circle cx="383.4" cy="270.5" r="3.5" fill="#ef4444"/><circle cx="383.8" cy="268.9" r="3.5" fill="#ef4444"/><circle cx="383.9" cy="267.4" r="3.5" fill="#ef4444"/><circle cx="384.4" cy="265.9" r="3.5" fill="#ef4444"/><circle cx="566.8" cy="264.3" r="3.5" fill="#ef4444"/><circle cx="567.8" cy="262.8" r="3.5" fill="#ef4444"/><circle cx="567.8" cy="261.3" r="3.5" fill="#ef4444"/><circle cx="567.9" cy="259.7" r="3.5" fill="#ef4444"/><circle cx="568.0" cy="258.2" r="3.5" fill="#ef4444"/><circle cx="568.0" cy="256.7" r="3.5" fill="#ef4444"/><circle cx="568.2" cy="255.1" r="3.5" fill="#ef4444"/><circle cx="568.4" cy="253.6" r="3.5" fill="#ef4444"/><circle cx="568.8" cy="252.0" r="3.5" fill="#ef4444"/><circle cx="568.8" cy="250.5" r="3.5" fill="#ef4444"/><circle cx="568.8" cy="249.0" r="3.5" fill="#ef4444"/><circle cx="568.9" cy="247.4" r="3.5" fill="#ef4444"/><circle cx="568.9" cy="245.9" r="3.5" fill="#ef4444"/><circle cx="568.9" cy="244.4" r="3.5" fill="#ef4444"/><circle cx="568.9" cy="242.8" r="3.5" fill="#ef4444"/><circle cx="569.0" cy="241.3" r="3.5" fill="#ef4444"/><circle cx="569.0" cy="239.8" r="3.5" fill="#ef4444"/><circle cx="569.2" cy="238.2" r="3.5" fill="#ef4444"/><circle cx="569.3" cy="236.7" r="3.5" fill="#ef4444"/><circle cx="569.7" cy="235.2" r="3.5" fill="#ef4444"/><circle cx="569.7" cy="233.6" r="3.5" fill="#ef4444"/><circle cx="571.2" cy="232.1" r="3.5" fill="#ef4444"/><circle cx="571.5" cy="230.6" r="3.5" fill="#ef4444"/><circle cx="572.3" cy="229.0" r="3.5" fill="#ef4444"/><circle cx="572.4" cy="227.5" r="3.5" fill="#ef4444"/><circle cx="572.5" cy="226.0" r="3.5" fill="#ef4444"/><circle cx="572.5" cy="224.4" r="3.5" fill="#ef4444"/><circle cx="572.5" cy="222.9" r="3.5" fill="#ef4444"/><circle cx="573.3" cy="221.4" r="3.5" fill="#ef4444"/><circle cx="575.1" cy="219.8" r="3.5" fill="#ef4444"/><circle cx="575.2" cy="218.3" r="3.5" fill="#ef4444"/><circle cx="575.5" cy="216.8" r="3.5" fill="#ef4444"/><circle cx="575.5" cy="215.2" r="3.5" fill="#ef4444"/><circle cx="575.9" cy="213.7" r="3.5" fill="#ef4444"/><circle cx="576.0" cy="212.2" r="3.5" fill="#ef4444"/><circle cx="576.4" cy="210.6" r="3.5" fill="#ef4444"/><circle cx="576.4" cy="209.1" r="3.5" fill="#ef4444"/><circle cx="576.7" cy="207.6" r="3.5" fill="#ef4444"/><circle cx="576.8" cy="206.0" r="3.5" fill="#ef4444"/><circle cx="576.8" cy="204.5" r="3.5" fill="#ef4444"/><circle cx="576.8" cy="203.0" r="3.5" fill="#ef4444"/><circle cx="576.9" cy="201.4" r="3.5" fill="#ef4444"/><circle cx="576.9" cy="199.9" r="3.5" fill="#ef4444"/><circle cx="576.9" cy="198.4" r="3.5" fill="#ef4444"/><circle cx="576.9" cy="196.8" r="3.5" fill="#ef4444"/><circle cx="576.9" cy="195.3" r="3.5" fill="#ef4444"/><circle cx="577.0" cy="193.8" r="3.5" fill="#ef4444"/><circle cx="577.0" cy="192.2" r="3.5" fill="#ef4444"/><circle cx="577.1" cy="190.7" r="3.5" fill="#ef4444"/><circle cx="577.1" cy="189.2" r="3.5" fill="#ef4444"/><circle cx="577.1" cy="187.6" r="3.5" fill="#ef4444"/><circle cx="577.1" cy="186.1" r="3.5" fill="#ef4444"/><circle cx="577.1" cy="184.6" r="3.5" fill="#ef4444"/><circle cx="577.1" cy="183.0" r="3.5" fill="#ef4444"/><circle cx="577.1" cy="181.5" r="3.5" fill="#ef4444"/><circle cx="577.2" cy="180.0" r="3.5" fill="#ef4444"/><circle cx="577.2" cy="178.4" r="3.5" fill="#ef4444"/><circle cx="577.2" cy="176.9" r="3.5" fill="#ef4444"/><circle cx="577.2" cy="175.4" r="3.5" fill="#ef4444"/><circle cx="577.2" cy="173.8" r="3.5" fill="#ef4444"/><circle cx="577.2" cy="172.3" r="3.5" fill="#ef4444"/><circle cx="577.2" cy="170.8" r="3.5" fill="#ef4444"/><circle cx="577.2" cy="169.2" r="3.5" fill="#ef4444"/><circle cx="577.2" cy="167.7" r="3.5" fill="#ef4444"/><circle cx="577.2" cy="166.2" r="3.5" fill="#ef4444"/><circle cx="577.2" cy="164.6" r="3.5" fill="#ef4444"/><circle cx="577.3" cy="163.1" r="3.5" fill="#ef4444"/><circle cx="577.3" cy="161.6" r="3.5" fill="#ef4444"/><circle cx="577.3" cy="160.0" r="3.5" fill="#ef4444"/><circle cx="577.3" cy="158.5" r="3.5" fill="#ef4444"/><circle cx="577.3" cy="157.0" r="3.5" fill="#ef4444"/><circle cx="577.3" cy="155.4" r="3.5" fill="#ef4444"/><circle cx="577.3" cy="153.9" r="3.5" fill="#ef4444"/><circle cx="577.3" cy="152.4" r="3.5" fill="#ef4444"/><circle cx="577.3" cy="150.8" r="3.5" fill="#ef4444"/><circle cx="577.4" cy="149.3" r="3.5" fill="#ef4444"/><circle cx="577.4" cy="147.8" r="3.5" fill="#ef4444"/><circle cx="577.4" cy="146.2" r="3.5" fill="#ef4444"/><circle cx="577.4" cy="144.7" r="3.5" fill="#ef4444"/><circle cx="577.4" cy="143.2" r="3.5" fill="#ef4444"/><circle cx="577.4" cy="141.6" r="3.5" fill="#ef4444"/><circle cx="577.4" cy="140.1" r="3.5" fill="#ef4444"/><circle cx="577.4" cy="138.6" r="3.5" fill="#ef4444"/><circle cx="577.4" cy="137.0" r="3.5" fill="#ef4444"/><circle cx="577.5" cy="135.5" r="3.5" fill="#ef4444"/><circle cx="577.5" cy="134.0" r="3.5" fill="#ef4444"/><circle cx="577.5" cy="132.4" r="3.5" fill="#ef4444"/><circle cx="577.5" cy="130.9" r="3.5" fill="#ef4444"/><circle cx="577.5" cy="129.4" r="3.5" fill="#ef4444"/><circle cx="577.5" cy="127.8" r="3.5" fill="#ef4444"/><circle cx="577.6" cy="126.3" r="3.5" fill="#ef4444"/><circle cx="577.6" cy="124.8" r="3.5" fill="#ef4444"/><circle cx="577.6" cy="123.2" r="3.5" fill="#ef4444"/><circle cx="577.6" cy="121.7" r="3.5" fill="#ef4444"/><circle cx="577.6" cy="120.2" r="3.5" fill="#ef4444"/><circle cx="577.9" cy="118.6" r="3.5" fill="#ef4444"/><circle cx="578.7" cy="117.1" r="3.5" fill="#ef4444"/><circle cx="578.8" cy="115.6" r="3.5" fill="#ef4444"/><circle cx="579.2" cy="114.0" r="3.5" fill="#ef4444"/><circle cx="579.4" cy="112.5" r="3.5" fill="#ef4444"/><circle cx="579.5" cy="111.0" r="3.5" fill="#ef4444"/><circle cx="579.5" cy="109.4" r="3.5" fill="#ef4444"/><circle cx="579.5" cy="107.9" r="3.5" fill="#ef4444"/><circle cx="580.8" cy="106.4" r="3.5" fill="#ef4444"/><circle cx="580.8" cy="104.8" r="3.5" fill="#ef4444"/><circle cx="580.9" cy="103.3" r="3.5" fill="#ef4444"/><circle cx="581.0" cy="101.8" r="3.5" fill="#ef4444"/><circle cx="581.6" cy="100.2" r="3.5" fill="#ef4444"/><circle cx="581.9" cy="98.7" r="3.5" fill="#ef4444"/><circle cx="582.0" cy="97.2" r="3.5" fill="#ef4444"/><circle cx="582.0" cy="95.6" r="3.5" fill="#ef4444"/><circle cx="582.1" cy="94.1" r="3.5" fill="#ef4444"/><circle cx="582.4" cy="92.6" r="3.5" fill="#ef4444"/><circle cx="582.4" cy="91.0" r="3.5" fill="#ef4444"/><circle cx="582.4" cy="89.5" r="3.5" fill="#ef4444"/><circle cx="582.9" cy="88.0" r="3.5" fill="#ef4444"/><circle cx="582.9" cy="86.4" r="3.5" fill="#ef4444"/><circle cx="583.0" cy="84.9" r="3.5" fill="#ef4444"/><circle cx="583.2" cy="83.4" r="3.5" fill="#ef4444"/><circle cx="584.0" cy="81.8" r="3.5" fill="#ef4444"/><circle cx="585.9" cy="80.3" r="3.5" fill="#ef4444"/><circle cx="587.5" cy="78.8" r="3.5" fill="#ef4444"/><circle cx="587.5" cy="77.2" r="3.5" fill="#ef4444"/><circle cx="590.0" cy="75.7" r="3.5" fill="#ef4444"/><circle cx="590.0" cy="74.2" r="3.5" fill="#ef4444"/><circle cx="590.0" cy="72.6" r="3.5" fill="#ef4444"/><circle cx="590.0" cy="71.1" r="3.5" fill="#ef4444"/><circle cx="590.0" cy="69.6" r="3.5" fill="#ef4444"/><circle cx="590.0" cy="69.6" r="3.5" fill="#ef4444"/><rect x="606.0" y="112.0" width="10" height="10" fill="#ef4444" rx="2"/><text class="ink" x="622.0" y="121.0">128 clients</text></svg>